<svg width="108" height="24" viewBox="0 0 108 24" fill="none" xmlns="http://www.w3.org/2000/svg">
<path d="M35.836 18C35.716 18 35.614 17.958 35.53 17.874C35.446 17.79 35.404 17.688 35.404 17.568V5.85C35.404 5.718 35.44 5.61 35.512 5.526C35.596 5.442 35.704 5.4 35.836 5.4H37.474C37.606 5.4 37.708 5.442 37.78 5.526C37.864 5.61 37.906 5.718 37.906 5.85V10.494H43.216V5.85C43.216 5.718 43.252 5.61 43.324 5.526C43.408 5.442 43.516 5.4 43.648 5.4H45.268C45.4 5.4 45.508 5.442 45.592 5.526C45.676 5.61 45.718 5.718 45.718 5.85V17.568C45.718 17.7 45.676 17.808 45.592 17.892C45.508 17.964 45.4 18 45.268 18H43.648C43.528 18 43.426 17.958 43.342 17.874C43.258 17.79 43.216 17.688 43.216 17.568V12.744H37.906V17.568C37.906 17.688 37.864 17.79 37.78 17.874C37.708 17.958 37.606 18 37.474 18H35.836ZM52.3333 18.18C51.0013 18.18 49.9393 17.796 49.1473 17.028C48.3673 16.248 47.9533 15.156 47.9053 13.752L47.8873 13.302L47.9053 12.852C47.9653 11.484 48.3853 10.41 49.1653 9.63C49.9573 8.85 51.0133 8.46 52.3333 8.46C53.7493 8.46 54.8413 8.892 55.6093 9.756C56.3893 10.62 56.7793 11.772 56.7793 13.212V13.59C56.7793 13.71 56.7373 13.812 56.6533 13.896C56.5693 13.98 56.4613 14.022 56.3293 14.022H50.3533V14.166C50.3773 14.826 50.5573 15.384 50.8933 15.84C51.2413 16.284 51.7153 16.506 52.3153 16.506C53.0233 16.506 53.5933 16.23 54.0253 15.678C54.1333 15.546 54.2173 15.462 54.2773 15.426C54.3493 15.39 54.4513 15.372 54.5833 15.372H56.1313C56.2393 15.372 56.3293 15.408 56.4013 15.48C56.4853 15.54 56.5273 15.618 56.5273 15.714C56.5273 16.002 56.3533 16.344 56.0053 16.74C55.6693 17.124 55.1833 17.46 54.5473 17.748C53.9113 18.036 53.1733 18.18 52.3333 18.18ZM54.3313 12.51V12.456C54.3313 11.748 54.1513 11.178 53.7913 10.746C53.4433 10.314 52.9573 10.098 52.3333 10.098C51.7093 10.098 51.2233 10.314 50.8753 10.746C50.5273 11.178 50.3533 11.748 50.3533 12.456V12.51H54.3313ZM59.14 18C59.02 18 58.918 17.958 58.834 17.874C58.75 17.79 58.708 17.688 58.708 17.568V5.652C58.708 5.52 58.75 5.418 58.834 5.346C58.918 5.262 59.02 5.22 59.14 5.22H60.634C60.766 5.22 60.868 5.262 60.94 5.346C61.024 5.418 61.066 5.52 61.066 5.652V17.568C61.066 17.688 61.024 17.79 60.94 17.874C60.868 17.958 60.766 18 60.634 18H59.14ZM63.9036 21.42C63.7836 21.42 63.6816 21.378 63.5976 21.294C63.5136 21.222 63.4716 21.12 63.4716 20.988V9.072C63.4716 8.94 63.5136 8.838 63.5976 8.766C63.6816 8.682 63.7836 8.64 63.9036 8.64H65.3256C65.4576 8.64 65.5596 8.682 65.6316 8.766C65.7156 8.838 65.7576 8.94 65.7576 9.072V9.792C66.4296 8.904 67.3896 8.46 68.6376 8.46C69.8496 8.46 70.7796 8.844 71.4276 9.612C72.0756 10.368 72.4236 11.394 72.4716 12.69C72.4836 12.834 72.4896 13.044 72.4896 13.32C72.4896 13.608 72.4836 13.824 72.4716 13.968C72.4236 15.228 72.0756 16.248 71.4276 17.028C70.7796 17.796 69.8496 18.18 68.6376 18.18C67.4256 18.18 66.5016 17.754 65.8656 16.902V20.988C65.8656 21.12 65.8236 21.222 65.7396 21.294C65.6676 21.378 65.5656 21.42 65.4336 21.42H63.9036ZM67.9716 16.254C69.2676 16.254 69.9576 15.456 70.0416 13.86C70.0536 13.74 70.0596 13.56 70.0596 13.32C70.0596 13.08 70.0536 12.9 70.0416 12.78C69.9576 11.184 69.2676 10.386 67.9716 10.386C67.2756 10.386 66.7596 10.608 66.4236 11.052C66.0876 11.496 65.9016 12.042 65.8656 12.69L65.8476 13.374L65.8656 14.076C65.8896 14.676 66.0756 15.192 66.4236 15.624C66.7836 16.044 67.2996 16.254 67.9716 16.254ZM75.1583 18C75.0383 18 74.9363 17.958 74.8523 17.874C74.7683 17.79 74.7263 17.688 74.7263 17.568V5.85C74.7263 5.718 74.7623 5.61 74.8343 5.526C74.9183 5.442 75.0263 5.4 75.1583 5.4H79.5503C83.0783 5.4 84.8783 7.032 84.9503 10.296C84.9743 10.992 84.9863 11.46 84.9863 11.7C84.9863 11.928 84.9743 12.39 84.9503 13.086C84.9023 14.766 84.4523 16.008 83.6003 16.812C82.7483 17.604 81.4283 18 79.6403 18H75.1583ZM79.5503 15.93C80.5583 15.93 81.2843 15.708 81.7283 15.264C82.1723 14.808 82.4063 14.064 82.4303 13.032C82.4543 12.312 82.4663 11.862 82.4663 11.682C82.4663 11.49 82.4543 11.046 82.4303 10.35C82.4063 9.366 82.1543 8.64 81.6743 8.172C81.2063 7.704 80.4683 7.47 79.4603 7.47H77.2283V15.93H79.5503ZM91.3065 18.18C89.9025 18.18 88.8165 17.82 88.0485 17.1C87.2805 16.368 86.8665 15.372 86.8065 14.112L86.7885 13.32L86.8065 12.528C86.8665 11.28 87.2865 10.29 88.0665 9.558C88.8465 8.826 89.9265 8.46 91.3065 8.46C92.6865 8.46 93.7665 8.826 94.5465 9.558C95.3265 10.29 95.7465 11.28 95.8065 12.528C95.8185 12.672 95.8245 12.936 95.8245 13.32C95.8245 13.704 95.8185 13.968 95.8065 14.112C95.7465 15.372 95.3325 16.368 94.5645 17.1C93.7965 17.82 92.7105 18.18 91.3065 18.18ZM91.3065 16.398C91.9425 16.398 92.4345 16.2 92.7825 15.804C93.1305 15.396 93.3225 14.802 93.3585 14.022C93.3705 13.902 93.3765 13.668 93.3765 13.32C93.3765 12.972 93.3705 12.738 93.3585 12.618C93.3225 11.838 93.1305 11.25 92.7825 10.854C92.4345 10.446 91.9425 10.242 91.3065 10.242C90.6705 10.242 90.1785 10.446 89.8305 10.854C89.4825 11.25 89.2905 11.838 89.2545 12.618L89.2365 13.32L89.2545 14.022C89.2905 14.802 89.4825 15.396 89.8305 15.804C90.1785 16.2 90.6705 16.398 91.3065 16.398ZM102.049 21.96C100.981 21.96 100.117 21.78 99.4569 21.42C98.7969 21.072 98.3289 20.67 98.0529 20.214C97.7769 19.758 97.6389 19.368 97.6389 19.044C97.6389 18.936 97.6809 18.84 97.7649 18.756C97.8609 18.672 97.9629 18.63 98.0709 18.63H99.6369C99.7449 18.63 99.8349 18.654 99.9069 18.702C99.9909 18.762 100.057 18.864 100.105 19.008C100.225 19.332 100.417 19.602 100.681 19.818C100.957 20.046 101.383 20.16 101.959 20.16C102.679 20.16 103.207 19.998 103.543 19.674C103.891 19.35 104.065 18.792 104.065 18V16.776C103.405 17.556 102.481 17.946 101.293 17.946C100.045 17.946 99.1029 17.562 98.4669 16.794C97.8429 16.026 97.5069 14.994 97.4589 13.698L97.4409 13.212L97.4589 12.726C97.5069 11.454 97.8489 10.428 98.4849 9.648C99.1209 8.856 100.057 8.46 101.293 8.46C101.929 8.46 102.487 8.58 102.967 8.82C103.447 9.06 103.849 9.39 104.173 9.81V9.09C104.173 8.958 104.215 8.85 104.299 8.766C104.383 8.682 104.485 8.64 104.605 8.64H106.063C106.183 8.64 106.285 8.688 106.369 8.784C106.453 8.868 106.495 8.97 106.495 9.09L106.513 17.766C106.513 19.098 106.141 20.13 105.397 20.862C104.653 21.594 103.537 21.96 102.049 21.96ZM101.959 16.038C102.643 16.038 103.153 15.822 103.489 15.39C103.837 14.958 104.029 14.43 104.065 13.806C104.077 13.71 104.083 13.512 104.083 13.212C104.083 12.924 104.077 12.732 104.065 12.636C104.029 12 103.837 11.466 103.489 11.034C103.153 10.602 102.643 10.386 101.959 10.386C100.663 10.386 99.9789 11.184 99.9069 12.78L99.8889 13.212C99.8889 14.064 100.039 14.748 100.339 15.264C100.651 15.78 101.191 16.038 101.959 16.038Z" fill="#3C184E"/>
<path d="M14.6392 9.89917C13.6591 9.89917 12.7375 10.3153 12.0022 11.0681C11.2689 10.3076 10.358 9.89917 9.3602 9.89917C7.61794 9.89917 6.07888 11.163 5.61755 12.9724C5.3758 13.9202 5.32525 15.4288 6.45644 17.2328C7.46681 18.844 9.20221 20.3281 11.6143 21.6439C11.7343 21.7094 11.8666 21.742 11.9991 21.742C12.1314 21.742 12.2639 21.7094 12.3837 21.644C14.7966 20.3282 16.5325 18.8441 17.5433 17.2329C18.675 15.429 18.6246 13.9204 18.383 12.9726C17.9214 11.163 16.382 9.89917 14.6392 9.89917ZM11.999 20.0187C6.72625 17.0058 6.96789 14.1786 7.17429 13.3693C7.44957 12.2896 8.36889 11.5058 9.36009 11.5058C10.1142 11.5058 10.8074 11.9647 11.3118 12.7979C11.4572 13.0383 11.7178 13.1851 11.9989 13.1852C11.9989 13.1852 11.9989 13.1852 11.999 13.1852C12.2799 13.1852 12.5405 13.0385 12.686 12.7982C13.191 11.9648 13.8845 11.5058 14.6391 11.5058C15.631 11.5058 16.5506 12.2896 16.8259 13.3693C17.0323 14.1784 17.2735 17.0056 11.999 20.0187Z" fill="#713FFF"/>
<path d="M8.53431 8.52195C10.2614 8.52195 11.6664 7.11698 11.6664 5.39004C11.6664 3.66289 10.2614 2.25781 8.53431 2.25781C6.80716 2.25781 5.40198 3.66299 5.40198 5.39004C5.40198 7.11698 6.80716 8.52195 8.53431 8.52195ZM8.53431 3.86447C9.37556 3.86447 10.0598 4.5489 10.0598 5.39004C10.0598 6.23107 9.37545 6.91529 8.53431 6.91529C7.69307 6.91529 7.00863 6.23107 7.00863 5.39004C7.00863 4.5488 7.69296 3.86447 8.53431 3.86447Z" fill="#713FFF"/>
<path d="M15.4662 8.52195C17.1933 8.52195 18.5983 7.11698 18.5983 5.39004C18.5983 3.66289 17.1933 2.25781 15.4662 2.25781C13.7392 2.25781 12.3341 3.66299 12.3341 5.39004C12.334 7.11698 13.7391 8.52195 15.4662 8.52195ZM15.4662 3.86447C16.3074 3.86447 16.9917 4.5489 16.9917 5.39004C16.9917 6.23107 16.3074 6.91529 15.4662 6.91529C14.625 6.91529 13.9408 6.23107 13.9408 5.39004C13.9407 4.5488 14.625 3.86447 15.4662 3.86447Z" fill="#713FFF"/>
<path d="M2.89905 7.00708C1.30053 7.00708 0 8.30772 0 9.90645C0 11.505 1.30053 12.8054 2.89905 12.8054C4.49778 12.8054 5.79831 11.5049 5.79831 9.90645C5.79842 8.30772 4.49778 7.00708 2.89905 7.00708ZM2.89905 11.1987C2.18644 11.1987 1.60666 10.6191 1.60666 9.90645C1.60666 9.19374 2.18644 8.61384 2.89905 8.61384C3.61176 8.61384 4.19166 9.19374 4.19166 9.90645C4.19176 10.6191 3.61187 11.1987 2.89905 11.1987Z" fill="#713FFF"/>
<path d="M21.1007 7.00708C19.5021 7.00708 18.2017 8.30772 18.2017 9.90634C18.2017 11.5049 19.5022 12.8053 21.1007 12.8053C22.6994 12.8053 24 11.5047 24 9.90634C24 8.30772 22.6994 7.00708 21.1007 7.00708ZM21.1007 11.1987C20.3881 11.1987 19.8083 10.6189 19.8083 9.90645C19.8083 9.19374 20.3881 8.61384 21.1007 8.61384C21.8134 8.61384 22.3933 9.19374 22.3933 9.90645C22.3933 10.6191 21.8134 11.1987 21.1007 11.1987Z" fill="#713FFF"/>
</svg>
